<?xml version="1.0" encoding="utf-8"?>
<!-- Generator: Adobe Illustrator 20.1.0, SVG Export Plug-In . SVG Version: 6.00 Build 0)  -->
<svg version="1.1" id="Layer_1" xmlns="http://www.w3.org/2000/svg" xmlns:xlink="http://www.w3.org/1999/xlink" x="0px" y="0px"
	 viewBox="0 0 283.5 283.5" style="enable-background:new 0 0 283.5 283.5;" xml:space="preserve">
<style type="text/css">
	.st0{fill:#FFFFFF;stroke:#000000;stroke-width:0.5;stroke-miterlimit:10;}
	.st1{fill:none;stroke:#000000;stroke-width:0.5;stroke-miterlimit:10;}
</style>
<title>John-Whitmore</title>
<g id="Livello_2">
	<path class="st0" d="M69.6,145.5c0,0-4,4.4-2.7,8.4s8,20.7,7.4,23.5s1,6.8,5.1,12.3s0-28.4,0-28.4l-1.8-11.8L69.6,145.5z"/>
	<path class="st0" d="M214.1,124.9c0,0,1.3-6.1,1.8,3.2c0.5,9.3-1.8,11.8-2,19.4s-1.5,11.4-2.8,17.4s-1.1,14-5.4,10.7
		c-7.8-6.1-4.7,0.7-2.9,2.5s-6.1-33.2-6.1-33.2l8-23.7l6.4-4L214.1,124.9z"/>
	<path class="st0" d="M88.7,60.4c0,0-3.8,1.4-7.7,7.9s-4.8,7.9-8.2,10.7s-6.7,9.1-6.2,16.1s-2.1,18.8-2.5,23.4s2.4,8.8,3.4,14.4
		c1,5.6,2.4,13,2.4,16.7s7.6-4.2,7.9,8.8s2.7,24.6,3.1,29.7s3.8,7.9,7.2,17.2s9.7,10.7,14.5,16.3s11.6,9.8,15.4,13s8.2,5.6,17.3,6.5
		s20.7,5.6,27.9,0s20.7-14.4,27-24.1s17.8-15.8,14.9-30.2s0-15.8-1.9-23.7s-2.9-10.2-0.5-18.6c2.4-8.3,2.4-19.5,5.3-19
		s8.2,6,4.8-6.5s-3.4-27.4-15.4-42.3s-5.3-17.2-14-21.4s-1-10.2-13-13s-16-5.1-18.6-3.7l2.6-1.4c0,0-7.2-2.3-9.6,0s-1-3.7-1-3.7
		s-3.8,2.3-5,4.6c-1.2,2.3,1.2-4.6,1.2-4.6s-4.8,1.4-8.7,7.7c0,0,2.2-4.6-0.2-7.7c0,0,0.5,7.4-2.6,8.4c0,0,0.7-8.4-5.5-8.4
		c0,0,6,5.6,2.2,7c0,0-7-4-7.2-7c0,0-1.7,2.5,0.2,6.5c0,0-6-4-11.1-6.5c0,0,4.8,4.2,4.6,7.2c0,0-4.1-4-7.9-2.3c0,0,4.1-0.2,1.4,4.6
		s0,1.2-7,3c0,0,3.4-1.2,0.2,4.9s-1.7-0.2-8.9,1.4C89.7,52.3,96.8,57.5,88.7,60.4z"/>
	<path class="st0" d="M125.2,142.5c-5.9-2.4-12.3-3.3-18.6-2.7c-10.1,1.1-17.9,5-19.4,8.7c-1.7,4-1.1,11.8,2.7,15.6
		c3.4,3.5,10,9.9,23.4,8.1s14.9-9.2,15.4-12.3S131,145.4,125.2,142.5z"/>
	<path class="st0" d="M122.9,143.5c-5-2.5-10.7-3.4-16.2-2.8c-9.4,1-17.2,4.6-18,8.3s-0.9,11.6,2.5,15s9,8.6,21.5,6.9
		s13.8-7.7,14.5-10.9S128.3,146.2,122.9,143.5z"/>
	<path class="st0" d="M151.8,136.4c5.9-2.4,12.3-3.3,18.6-2.7c10.1,1,18.5,4.8,19.4,8.7s0.9,13-2.7,16.5s-9.9,9-23.4,7.2
		s-14.9-9.2-15.4-12.3S146,139.2,151.8,136.4z"/>
	<path class="st0" d="M146.9,141.6c-6.4-2-13.6-0.2-18.7,1.4c0,0-1.3,1.4,0,2.3c1.3,0.9,2-4.4,17.9-2.2
		C146.1,143.2,148.3,143.7,146.9,141.6z"/>
	<path class="st0" d="M118.3,132.9c0,0,0.8-2.3-2.3-2c-3.1,0.3-0.5-0.8-5.5,0c-5,0.8-17,4.8-19.8,4.9s-4.3-0.3-3.7,1.7
		c0.6,2-1.8,5,4.3,2.6s5.2-2,11.3-2.9s9.1-2.8,12.3-2.3S117.8,136,118.3,132.9z"/>
	<path class="st0" d="M150.2,131.1c0,0-1.2-2.1,1.8-2.4c3-0.3,0.3-0.9,5.4-1s17.7,1.4,20.4,1.1s4.1-1.1,3.9,1
		c-0.2,2.1,2.8,4.6-3.7,3.4c-6.5-1.2-5.5-1-11.6-0.7s-9.5-1-12.6,0.1C150.7,133.6,151.3,134.1,150.2,131.1z"/>
	<path class="st0" d="M119.4,145.5c0,0-6.2-2.7-14.4,1.3c-1.6,0.8-3.1,1.7-4.5,2.8c0,0,17.2,2.3,18.9-1.4
		C119.4,148.2,121.7,146.1,119.4,145.5z"/>
	<ellipse class="st0" cx="111.7" cy="147.6" rx="4.3" ry="2.8"/>
	<path class="st0" d="M155.6,146.8c0,0,6.2,2.7,14.4-1.3c1.6-0.8,3.1-1.7,4.5-2.8c0,0-17.2-2.3-18.9,1.4
		C155.6,144.1,153.3,146.1,155.6,146.8z"/>
	<ellipse class="st0" cx="163.3" cy="144.7" rx="4.3" ry="2.8"/>
	<path class="st0" d="M126.1,178.4c0.7,3.6-3.4,3.4,3.5,5.1s9.5,7.3,16,3.7s5.7-6,8.1-6s-0.5-3.9-0.6-5.1"/>
	<path class="st0" d="M118.9,203.5c0,0,6.9,3.3,10.9,4.6s10.3,1,16.2,0.6s11.4-0.4,14.5-1.6s7.9-5.6,10.3-6.9c0,0,4.4-2.2-5.9,0.3
		s-18.6,3.9-25.4,3.9s-13-2.4-16.5-2.2S117.3,202.7,118.9,203.5z"/>
	<path class="st1" d="M112.8,76.9c0,0-1.1-1.6-6.5-2.6s-4.2-3.6-9.9,2.6s-2.3,7.7-8.3,11.9s-7.2,1.5-5.8,9.8s4.4,13.9-0.5,21.2
		s-3.9,9.4-3.1,13.2s1.1,8.9,3.6,24.2s3.5,19.2,5.4,26.5s3.6,13.4,8.7,13.7s4.6-1.3,8.7-3.5s7.8-11.6,11.4-10.2
		c2.5,1,7.3,1.6,11.6,3.2c2.5,0.9,4.8,2.1,7,3.6c1.6,1.1,8.5,1.8,12.4,0s9.4-5.8,12.4-6.8s2.3-3.6,8.9-1.4s6.3,3.6,11.4,6.2
		s9.1,4.1,11.8-2.1s6-6.3,5.6-15.7s-1.9-18.7-2.2-23.1c-0.4-4.4-0.2-19.5,0-24.7s-2-4.1-4.1-14.4s-7.7-23.7-8.1-21.2
		c-0.7,2.6-1.5,5.2-2.6,7.7c0,0,1.6-3.6-2.1-9.3s-3.2,3.1-3,5.7s-4.4-4.7-5.5-9.8c-1.1-5.2-2.9,4.7-2.9,4.7s-5.9-6.7-7.1-9.8
		s-4.4,0-4.4,0s-1.4-4.1-7.4-6.2s-4.4-6.7-12.5,0c-8,6.7-11.9,4.6-14.2,3.6C119.1,72.7,115.7,78.5,112.8,76.9z"/>
	<path class="st0" d="M197.3,124.9c0,0-4.1,12.1-4.1,19.7c-1.2-0.1-2.4-0.1-3.6,0c-0.9,0.3-0.9-1.8,0-1.8c0.6,0,1.3-0.1,1.9-0.3
		c0,0,4.6-20.7,5.8-20.2S197.3,124.9,197.3,124.9z"/>
	<path class="st0" d="M87.7,150.3c0,0,0.5,1.8-0.5,2c-1.9,0.4-2,0.9-3.3-1.2c-1.3-2.2-6.3-18.3-6.3-18.3l0.6-2
		c0,0,5.4,17.1,6.7,19.1C86.3,151.9,86.8,149.6,87.7,150.3z"/>
	<path class="st1" d="M154,137.6c5-2.5,10.7-3.4,16.2-2.8c9.4,1,17.2,4.6,18,8.3s0.9,11.6-2.5,15s-9,8.6-21.6,6.9
		s-13.8-7.7-14.5-10.9S148.7,140.3,154,137.6z"/>
</g>
</svg>
