<?xml version="1.0" encoding="utf-8"?>
<!-- Generator: Adobe Illustrator 20.1.0, SVG Export Plug-In . SVG Version: 6.00 Build 0)  -->
<svg version="1.1" id="Layer_1" xmlns="http://www.w3.org/2000/svg" xmlns:xlink="http://www.w3.org/1999/xlink" x="0px" y="0px"
	 viewBox="0 0 24 24" style="enable-background:new 0 0 24 24;" xml:space="preserve">
<style type="text/css">
	.st0{fill:#3D3D3D;}
	.st1{fill:#FFFFFF;}
</style>
<path class="st0" d="M17.1,17.8c-0.2,0.2-0.5,0.2-0.7,0.1c-1.1-0.9-1.2-1.3-1.8-2.1c-1.7,1.8-3,2.3-5.2,2.3c-2.7,0-4.7-1.6-4.7-4.9
	C4.6,10.6,6,8.8,8,8c1.7-0.8,4.1-0.9,5.9-1.1V6.5c0-0.8,0.1-1.6-0.4-2.3c-0.4-0.6-1.1-0.8-1.8-0.8c-1.2,0-2.3,0.6-2.5,1.9
	c0,0.2-0.2,0.5-0.5,0.5L5.6,5.5C5.4,5.4,5.1,5.2,5.2,4.8c0.7-3.7,4-4.8,7-4.8c1.5,0,3.5,0.4,4.8,1.6C18.5,3,18.4,4.9,18.4,7v4.9
	c0,1.5,0.6,2.1,1.2,2.9c0.2,0.3,0.2,0.6,0,0.8C18.9,16.2,17.8,17.2,17.1,17.8C17.2,17.8,17.1,17.8,17.1,17.8z"/>
<path class="st1" d="M14,10.1c0,1.2,0,2.3-0.6,3.4c-0.5,0.9-1.3,1.4-2.2,1.4c-1.2,0-1.9-0.9-1.9-2.3c0-2.7,2.4-3.2,4.7-3.2V10.1
	L14,10.1z"/>
<path class="st0" d="M20.7,19.8C18,21.3,15,22,12.3,22c-4,0-7.9-1.4-11.1-3.7c-0.3-0.2-0.5,0.2-0.3,0.4C3.8,22,7.7,24,12,24
	c3.1,0,6.6-1.2,9.1-3.5C21.5,20.1,21.1,19.6,20.7,19.8z"/>
<path class="st0" d="M21.4,22c-0.1,0.2,0.1,0.3,0.3,0.1c1.3-1.1,1.7-3.5,1.4-3.8c-0.3-0.3-2.6-0.6-4,0.4c-0.2,0.2-0.2,0.4,0.1,0.3
	c0.8-0.1,2.6-0.3,2.9,0.1C22.3,19.6,21.7,21.2,21.4,22z"/>
</svg>
