<?xml version="1.0" encoding="utf-8"?>
<!-- Generator: Adobe Illustrator 20.1.0, SVG Export Plug-In . SVG Version: 6.00 Build 0)  -->
<svg version="1.1" id="Capa_1" xmlns="http://www.w3.org/2000/svg" xmlns:xlink="http://www.w3.org/1999/xlink" x="0px" y="0px"
	 viewBox="0 0 512 512" style="enable-background:new 0 0 512 512;" xml:space="preserve">
<style type="text/css">
	.st0{fill:#3D3D3D;}
</style>
<g>
	<path class="st0" d="M489.7,277.7c-14.8-18.6-33.8-30.6-56.9-36.1c7.3-11,10.9-23.3,10.9-36.8c0-18.8-6.7-34.9-20-48.3
		c-13.3-13.3-29.4-20-48.3-20c-16.9,0-31.6,5.5-44.3,16.5c-10.5-25.6-27.2-46.1-50.3-61.6c-23-15.5-48.4-23.2-76.1-23.2
		c-37.7,0-69.9,13.3-96.5,40c-26.7,26.7-40,58.8-40,96.5c0,2.3,0.2,6.1,0.5,11.5c-21,9.8-37.7,24.4-50.1,44
		C6.2,279.8,0,301.2,0,324.3c0,32.9,11.7,61,35.1,84.4c23.4,23.4,51.5,35.1,84.4,35.1h290.1c28.3,0,52.4-10,72.4-30
		c20-20,30-44.1,30-72.4C512,317.5,504.6,296.3,489.7,277.7z M338.7,288l-93.6,93.6c-1.6,1.6-3.6,2.4-6.1,2.4
		c-2.5,0-4.5-0.8-6.1-2.4l-93.9-93.9c-1.6-1.6-2.4-3.6-2.4-6.1c0-2.3,0.8-4.3,2.5-6c1.7-1.7,3.7-2.5,6-2.5h59.7v-93.9
		c0-2.3,0.8-4.3,2.5-6c1.7-1.7,3.7-2.5,6-2.5h51.2c2.3,0,4.3,0.8,6,2.5c1.7,1.7,2.5,3.7,2.5,6v93.9h59.7c2.5,0,4.5,0.8,6.1,2.4
		c1.6,1.6,2.4,3.6,2.4,6.1C341.3,283.7,340.4,285.9,338.7,288z"/>
</g>
</svg>
