<?xml version="1.0" encoding="utf-8"?>
<!-- Generator: Adobe Illustrator 20.1.0, SVG Export Plug-In . SVG Version: 6.00 Build 0)  -->
<svg version="1.1" id="Capa_1" xmlns="http://www.w3.org/2000/svg" xmlns:xlink="http://www.w3.org/1999/xlink" x="0px" y="0px"
	 viewBox="0 0 496 496" style="enable-background:new 0 0 496 496;" xml:space="preserve">
<style type="text/css">
	.st0{fill:#C0CC19;}
	.st1{fill:#3D3D3D;}
	.st2{fill:#3F3A34;}
</style>
<g>
	<rect x="72" y="120" class="st0" width="128" height="96"/>
	<circle class="st0" cx="328" cy="264" r="48"/>
</g>
<g>
	<rect x="64" y="240" class="st0" width="144" height="16"/>
	<rect x="96" y="272" class="st0" width="112" height="16"/>
	<rect x="64" y="272" class="st0" width="16" height="16"/>
	<rect x="192" y="304" class="st0" width="16" height="16"/>
	<rect x="64" y="304" class="st0" width="112" height="16"/>
	<rect x="256" y="112" class="st0" width="144" height="16"/>
	<rect x="288" y="144" class="st0" width="112" height="16"/>
	<rect x="256" y="144" class="st0" width="16" height="16"/>
	<rect x="384" y="176" class="st0" width="16" height="16"/>
	<rect x="256" y="176" class="st0" width="112" height="16"/>
</g>
<path class="st1" d="M456,0H248c-22.1,0-40,17.9-40,40v24h8h8h256v336h16V40C496,17.9,478.1,0,456,0z M224,48v-8
	c0-13.2,10.8-24,24-24h208c13.2,0,24,10.8,24,24v8H224z"/>
<path class="st1" d="M208,456c0,22.1,17.9,40,40,40h208c22.1,0,40-17.9,40-40v-40H208V456z M224,432h256v24c0,13.2-10.8,24-24,24
	H248c-13.2,0-24-10.8-24-24V432z"/>
<rect x="312" y="448" class="st2" width="80" height="16"/>
<path class="st1" d="M263.8,384H464V96h-16v272H255l-2.3,4c-4.4,7.5-12.1,12-20.6,12s-16.3-4.5-20.6-12l-2.3-4H16V96H0v288h200.2
	c7.5,10,19.3,16,31.8,16S256.3,394,263.8,384z"/>
<path class="st1" d="M432,80H32v272h400V80z M48,96h176v240H48V96z M416,336H240V96h176V336z"/>
<path class="st1" d="M64,112v112h144V112H64z M192,208H80v-80h112V208z"/>
<path class="st1" d="M328,320c30.9,0,56-25.1,56-56s-25.1-56-56-56s-56,25.1-56,56S297.1,320,328,320z M328,224
	c22.1,0,40,17.9,40,40s-17.9,40-40,40s-40-17.9-40-40S305.9,224,328,224z"/>
</svg>
