<?xml version="1.0" encoding="utf-8"?>
<!-- Generator: Adobe Illustrator 20.1.0, SVG Export Plug-In . SVG Version: 6.00 Build 0)  -->
<svg version="1.1" id="Layer_1" xmlns="http://www.w3.org/2000/svg" xmlns:xlink="http://www.w3.org/1999/xlink" x="0px" y="0px"
	 viewBox="0 0 436 119" style="enable-background:new 0 0 436 119;" xml:space="preserve">
<style type="text/css">
	.st0{fill:#BFCC31;}
	.st1{fill:#3D3D3D;}
</style>
<g>
	<g>
		<path class="st0" d="M57,91.9c-5.8,0-11.3-1.6-16.1-4.3v18.3c5.4,2,11.2,3.1,17.3,3.1c18.9,0,35.4-10.5,43.8-26.1l-16-8.8
			C80.6,84.6,69.7,91.9,57,91.9z"/>
		<path class="st0" d="M24.5,59.4C24.5,41.5,39,26.9,57,26.9c12.5,0,23.4,7.1,28.8,17.4l16.3-9c-8.4-15.5-24.9-26-43.8-26
			C30.7,9.3,8.4,31.6,8.4,59.1c0,14.5,6.2,27.6,16.1,36.7V59.4z"/>
	</g>
	<circle class="st0" cx="57.1" cy="59.4" r="15.5"/>
</g>
<g>
	<g>
		<path class="st1" d="M111.8,82.7v-0.8h12v0.8h-5.5v14.1h-1V82.7H111.8z"/>
		<path class="st1" d="M128.1,81.9v6.5l0,0c0.6-1.6,2.3-2.6,4-2.6c4,0,4,3,4,4.3v6.6h-0.8v-6.8c0-1.1-0.1-3.5-3.2-3.5
			c-2.5,0-4,1.9-4,4.5v5.8h-0.8V81.9H128.1z"/>
		<path class="st1" d="M141.6,91.6c0,2.5,1.4,4.8,4.1,4.8c2.1,0,3.6-1.2,4-3.2h0.8c-0.4,2.5-2.2,3.9-4.9,3.9c-3.3,0-5-2.5-5-5.4
			s1.6-5.8,5-5.8c3.5,0,5.1,2.7,4.9,5.7H141.6z M149.9,90.9c0-2.3-1.5-4.3-4.1-4.3c-2.5,0-4,2.2-4.1,4.3H149.9z"/>
		<g>
			<path class="st1" d="M168.1,86.8h-2.4v7.5c0,1.7,0.9,1.9,2.4,1.9v0.7c-1.7,0.1-3.3-0.1-3.3-2.6v-7.5h-2.1v-0.7h2.1v-3.3h0.8v3.3
				h2.4v0.7H168.1z"/>
			<path class="st1" d="M167.5,97.4c-0.7,0-1.8-0.1-2.5-0.8c-0.5-0.5-0.7-1.3-0.7-2.3v-7h-2.1v-1.7h2.1v-3.3h1.8v3.3h2.4v1.7h-2.4v7
				c0,1.2,0.4,1.4,1.6,1.4h0.9v1.7h-0.5C167.9,97.4,167.7,97.4,167.5,97.4L167.5,97.4z"/>
		</g>
		<g>
			<path class="st1" d="M173.1,88.5L173.1,88.5c0.5-1.4,2.3-2.5,4.4-2.4v0.8c-0.9-0.1-2.1,0.1-3.1,1c-0.8,0.8-1.2,1.5-1.3,3.1v5.9
				h-0.8V86.1h0.8L173.1,88.5L173.1,88.5z"/>
			<path class="st1" d="M173.6,97.4h-1.8V85.6h1.8v1.3c0.9-0.8,2.2-1.4,3.7-1.4h0.7v1.8l-0.6-0.1c-0.1,0-0.2,0-0.4,0
				c-0.5,0-1.5,0.1-2.3,0.9c-0.7,0.7-1,1.2-1.1,2.8L173.6,97.4L173.6,97.4z M172.8,89v0.7c0.1-0.2,0.1-0.5,0.2-0.7H172.8L172.8,89z"
				/>
		</g>
		<g>
			<path class="st1" d="M189.2,94.9c0,0.6,0,1.3,0.7,1.3c0.2,0,0.4,0,0.6-0.1v0.7c-0.2,0-0.5,0.1-0.7,0.1c-1.3,0-1.5-0.7-1.5-1.6
				v-0.6l0,0c-0.5,1.3-2,2.4-4.2,2.4c-2.1,0-3.8-0.8-3.8-3c0-2.5,2.3-3,4.1-3.2c3.7-0.3,3.9-0.5,3.9-2.2c0-0.5-0.6-2.1-3.1-2.1
				c-2,0-3.3,1-3.5,2.9H181c0.1-2.4,1.6-3.6,4.3-3.6c2,0,3.9,0.6,3.9,2.8V94.9z M188.4,90.7c-0.7,0.7-2.4,0.6-4.1,0.8
				c-2,0.2-3.1,0.9-3.1,2.5c0,1.3,1,2.3,3,2.3c3.8,0,4.2-3.1,4.2-3.7L188.4,90.7L188.4,90.7z"/>
			<path class="st1" d="M184.2,97.6c-2.7,0-4.3-1.3-4.3-3.5c0-3.3,3.5-3.6,4.6-3.7c3.4-0.2,3.4-0.3,3.4-1.7c0-0.3-0.5-1.6-2.6-1.6
				c-1.1,0-2.8,0.3-3,2.4V90h-1.8v-0.5c0.1-2.6,1.8-4,4.8-4c2.9,0,4.4,1.2,4.4,3.3V95c0,0.8,0.1,0.8,0.2,0.8c0.1,0,0.3,0,0.5-0.1
				l0.6-0.1v1.7l-0.4,0.1c-0.3,0.1-0.5,0.1-0.8,0.1c-1.3,0-1.7-0.6-1.9-1.2C187.1,97.1,185.7,97.6,184.2,97.6L184.2,97.6z
				 M187.9,91.6c-0.6,0.2-1.4,0.3-2.3,0.3c-0.4,0-0.8,0.1-1.2,0.1c-2.3,0.2-2.6,1.1-2.6,2c0,1.2,0.9,1.8,2.5,1.8
				c3.7,0,3.7-3.1,3.7-3.2L187.9,91.6L187.9,91.6z M188.6,94.2h0.1v-0.4C188.7,93.9,188.7,94.1,188.6,94.2L188.6,94.2z"/>
		</g>
		<g>
			<path class="st1" d="M194.7,84.1v-2.2h0.8v2.2H194.7z M194.7,96.9V86.1h0.8v10.7h-0.8V96.9z"/>
			<path class="st1" d="M196,97.4h-1.8V85.6h1.8V97.4L196,97.4z M196,84.6h-1.8v-3.2h1.8V84.6L196,84.6z"/>
		</g>
		<g>
			<path class="st1" d="M200.8,86.1h0.8v2.3l0,0c0.6-1.6,2.3-2.6,4-2.6c4,0,4,3,4,4.3v6.6h-0.8v-6.8c0-1.1-0.1-3.5-3.2-3.5
				c-2.5,0-4,1.9-4,4.5v5.8h-0.8V86.1z"/>
			<path class="st1" d="M210.2,97.4h-1.8v-7.3c0-1.4-0.3-3-2.7-3c-2.2,0-3.5,1.6-3.5,4v6.3h-1.8V85.6h1.8v1.2
				c0.9-0.9,2.2-1.4,3.6-1.4c4.5,0,4.5,3.6,4.5,4.8v7.2H210.2z M201.3,88.9v0.6c0.1-0.2,0.1-0.4,0.2-0.6H201.3L201.3,88.9z"/>
		</g>
		<g>
			<path class="st1" d="M215,84.1v-2.2h0.8v2.2H215z M215,96.9V86.1h0.8v10.7H215V96.9z"/>
			<path class="st1" d="M216.3,97.4h-1.8V85.6h1.8V97.4L216.3,97.4z M216.3,84.6h-1.8v-3.2h1.8V84.6L216.3,84.6z"/>
		</g>
		<g>
			<path class="st1" d="M221.1,86.1h0.8v2.3l0,0c0.6-1.6,2.3-2.6,4-2.6c4,0,4,3,4,4.3v6.6h-0.8v-6.8c0-1.1-0.1-3.5-3.2-3.5
				c-2.5,0-4,1.9-4,4.5v5.8h-0.8V86.1z"/>
			<path class="st1" d="M230.5,97.4h-1.8v-7.3c0-1.4-0.3-3-2.7-3c-2.2,0-3.5,1.6-3.5,4v6.3h-1.8V85.6h1.8v1.2
				c0.9-0.9,2.2-1.4,3.6-1.4c4.5,0,4.5,3.6,4.5,4.8v7.2H230.5z M221.6,88.9v0.6c0.1-0.2,0.1-0.4,0.2-0.6H221.6L221.6,88.9z"/>
		</g>
		<g>
			<path class="st1" d="M244.4,86.1v10.2c0,0.8,0,4.8-4.9,4.7c-2.4,0-4.3-0.9-4.4-3.3h0.8c0.2,1.9,1.8,2.7,3.6,2.7
				c3.9,0,4-3.1,4-3.8V94l0,0c-0.8,1.6-2.2,2.4-4.1,2.4c-3.3,0-4.9-2.3-4.9-5.3c0-2.8,1.7-5.3,4.9-5.3c1.7,0,3.5,0.9,4.1,2.5l0,0
				v-2.2H244.4z M235.4,91.1c0,2.5,1.4,4.6,4,4.6c2.7,0,4.1-2.2,4.1-4.6s-1.3-4.6-4.1-4.6C236.7,86.5,235.4,88.9,235.4,91.1z"/>
			<path class="st1" d="M239.8,101.5h-0.3c-3.9,0-4.8-2.1-4.9-3.8v-0.5h1.8v0.5c0.2,1.9,2,2.2,3.1,2.2c2.9,0,3.5-1.8,3.5-3.3v-0.9
				c-0.9,0.9-2.1,1.4-3.6,1.4c-3.3,0-5.4-2.2-5.4-5.8c0-3.4,2.2-5.8,5.4-5.8c1.4,0,2.7,0.5,3.6,1.4v-1.1h1.8v10.7
				C244.9,99.6,243,101.5,239.8,101.5L239.8,101.5z M239.4,87c-2.4,0-3.5,2.1-3.5,4.1c0,1.9,0.9,4.1,3.5,4.1s3.6-2.2,3.6-4.1
				C243,89.3,242.1,87,239.4,87L239.4,87z M243.6,93.5h0.3v-1C243.8,92.9,243.7,93.2,243.6,93.5L243.6,93.5z M243.6,88.8
				c0.1,0.3,0.2,0.6,0.3,0.9v-0.9H243.6L243.6,88.8z"/>
		</g>
		<path class="st1" d="M258.5,91.6c0,2.5,1.4,4.8,4.1,4.8c2.1,0,3.6-1.2,4-3.2h0.8c-0.4,2.5-2.2,3.9-4.9,3.9c-3.3,0-5-2.5-5-5.4
			s1.6-5.8,5-5.8c3.5,0,5.1,2.7,4.9,5.7H258.5z M266.7,90.9c0-2.3-1.5-4.3-4.1-4.3c-2.5,0-4,2.2-4.1,4.3H266.7z"/>
		<path class="st1" d="M275.2,91.2l-4.1-5.1h1.2l3.5,4.5l3.5-4.5h1.1l-4.1,5.1l4.4,5.6h-1.1l-3.8-5l-3.9,5h-1L275.2,91.2z"/>
		<path class="st1" d="M285.5,88.6L285.5,88.6c0.4-1.1,1.7-2.7,4.1-2.7c3.5,0,5.1,2.6,5.1,5.6c0,3.3-1.6,5.6-5.1,5.6
			c-1.9,0-3.4-0.8-4.1-2.5l0,0v6.1h-0.8V86.1h0.8V88.6z M293.8,91.5c0-2.4-1.2-5-4.2-5s-4.1,2.4-4.1,5s0.9,4.9,4.1,4.9
			C292.6,96.4,293.8,94.2,293.8,91.5z"/>
		<path class="st1" d="M299.6,91.6c0,2.5,1.4,4.8,4.1,4.8c2.1,0,3.6-1.2,4-3.2h0.8c-0.4,2.5-2.2,3.9-4.9,3.9c-3.3,0-5-2.5-5-5.4
			s1.6-5.8,5-5.8c3.5,0,5.1,2.7,4.9,5.7H299.6z M307.8,90.9c0-2.3-1.5-4.3-4.1-4.3c-2.5,0-4,2.2-4.1,4.3H307.8z"/>
		<path class="st1" d="M314.1,88.5L314.1,88.5c0.5-1.4,2.3-2.5,4.4-2.4v0.8c-0.9-0.1-2.1,0.1-3.1,1c-0.8,0.8-1.2,1.5-1.3,3.1v5.9
			h-0.8V86.1h0.8V88.5z"/>
		<path class="st1" d="M322.1,84.1v-2.2h0.8v2.2H322.1z M322.1,96.9V86.1h0.8v10.7h-0.8V96.9z"/>
		<path class="st1" d="M328.6,91.6c0,2.5,1.4,4.8,4.1,4.8c2.1,0,3.6-1.2,4-3.2h0.8c-0.4,2.5-2.2,3.9-4.9,3.9c-3.3,0-5-2.5-5-5.4
			s1.6-5.8,5-5.8c3.5,0,5.1,2.7,4.9,5.7H328.6z M336.8,90.9c0-2.3-1.5-4.3-4.1-4.3c-2.5,0-4,2.2-4.1,4.3H336.8z"/>
		<path class="st1" d="M342.2,86.1h0.8v2.3l0,0c0.6-1.6,2.3-2.6,4-2.6c4,0,4,3,4,4.3v6.6h-0.8v-6.8c0-1.1-0.1-3.5-3.2-3.5
			c-2.5,0-4,1.9-4,4.5v5.8h-0.8V86.1z"/>
		<path class="st1" d="M364.6,89.4c-0.2-1.9-1.8-2.9-3.8-2.9c-2.8,0-4.3,2.4-4.3,4.8c0,2.9,1.4,5,4.3,5c2.1,0,3.6-1.4,3.9-3.3h0.8
			c-0.4,2.6-2.3,4-4.7,4c-3.7,0-5.2-2.7-5.2-5.7s1.8-5.5,5.2-5.5c2.4,0,4.4,1.1,4.6,3.6H364.6z"/>
		<path class="st1" d="M370.5,91.6c0,2.5,1.4,4.8,4.1,4.8c2.1,0,3.6-1.2,4-3.2h0.8c-0.4,2.5-2.2,3.9-4.9,3.9c-3.3,0-5-2.5-5-5.4
			s1.6-5.8,5-5.8c3.5,0,5.1,2.7,4.9,5.7H370.5z M378.7,90.9c0-2.3-1.5-4.3-4.1-4.3c-2.5,0-4,2.2-4.1,4.3H378.7z"/>
	</g>
</g>
<g>
	<g>
		<path class="st1" d="M97.2,44.9h11.1c3,0,7.6,1,7.6,7c0,4.4-3,6.9-8.2,6.9h-8.9v11.1h-1.6V44.9z M98.8,57.4h9.2
			c4.7,0,6.3-3,6.3-5.6c0-1.9-0.9-5.6-6.1-5.6h-9.4V57.4z"/>
		<path class="st1" d="M120.3,55.9L120.3,55.9c0.8-2.3,3.9-4.2,7.3-4.1v1.3c-1.5-0.2-3.5,0.2-5.2,1.8c-1.4,1.4-2,2.5-2.1,5.2v9.8
			h-1.4v-18h1.4V55.9z"/>
		<path class="st1" d="M137.2,51.5c5.5,0,8.6,4.3,8.6,9.4s-3.1,9.4-8.6,9.4s-8.6-4.3-8.6-9.4S131.7,51.5,137.2,51.5z M137.2,69.2
			c4.7,0,7.2-4,7.2-8.3s-2.5-8.3-7.2-8.3s-7.2,4-7.2,8.3S132.5,69.2,137.2,69.2z"/>
		<path class="st1" d="M149.5,51.9h1.4v3.7h0.1c0.6-2.3,3.1-4.1,5.9-4.1c3.6,0,5.3,2,5.7,3.8h0.1c1.1-2.4,2.9-3.8,6-3.8
			c3.4,0,5.9,1.9,5.9,6.1v12.3h-1.4V57.6c0-4.6-3.4-4.9-4.5-4.9c-3.4,0-5.9,2.3-5.9,6.6v10.6h-1.4V57.6c0-4.5-3.2-4.9-4.4-4.9
			c-2.7,0-6,2-6,6.6v10.6h-1.4v-18H149.5z"/>
		<path class="st1" d="M179.5,61.1c-0.1,4.2,2.3,8.1,6.9,8.1c3.6,0,6.1-2,6.7-5.4h1.4c-0.7,4.2-3.7,6.5-8.1,6.5
			c-5.5,0-8.4-4.1-8.3-9.1c-0.1-4.9,2.6-9.7,8.3-9.7c5.9,0,8.5,4.4,8.3,9.6H179.5z M193.3,59.9c-0.1-3.8-2.6-7.3-6.9-7.3
			c-4.2,0-6.6,3.7-6.9,7.3H193.3z"/>
		<path class="st1" d="M205.3,53.1h-4.1v12.6c0,2.9,1.4,3.2,4.1,3.1V70c-2.9,0.2-5.6-0.2-5.5-4.3V53.1h-3.5v-1.2h3.5v-5.6h1.4v5.6
			h4.1V53.1z"/>
		<path class="st1" d="M208.7,61.1c-0.1,4.2,2.3,8.1,6.9,8.1c3.6,0,6.1-2,6.7-5.4h1.4c-0.7,4.2-3.7,6.5-8.1,6.5
			c-5.5,0-8.4-4.1-8.3-9.1c-0.1-4.9,2.6-9.7,8.3-9.7c5.9,0,8.5,4.4,8.3,9.6H208.7z M222.5,59.9c-0.1-3.8-2.6-7.3-6.9-7.3
			c-4.2,0-6.6,3.7-6.9,7.3H222.5z"/>
		<path class="st1" d="M235.3,51.5c5.5,0,8.6,4.3,8.6,9.4s-3.1,9.4-8.6,9.4s-8.6-4.3-8.6-9.4S229.8,51.5,235.3,51.5z M235.3,69.2
			c4.7,0,7.2-4,7.2-8.3s-2.5-8.3-7.2-8.3s-7.2,4-7.2,8.3S230.6,69.2,235.3,69.2z"/>
	</g>
</g>
<g>
	<g>
		<g>
			<path class="st1" d="M272.2,52.4c-0.7-4.2-4.5-6.7-8.9-6.7c-6.8,0-10.8,5.4-10.8,11.8s4,11.8,10.8,11.8c5.1,0,9-4.3,9.3-9h1.6
				c-0.6,5.9-5.2,10.3-10.9,10.3c-7.8,0-12.4-5.8-12.4-13.1s4.6-13.1,12.4-13.1c9.3,0,10.5,7.7,10.5,8
				C273.8,52.4,272.2,52.4,272.2,52.4z"/>
			<path class="st1" d="M263.3,71c-7.6,0-12.9-5.6-12.9-13.6s5.3-13.6,12.9-13.6c9.8,0,11,8.4,11,8.5l0.1,0.6h-2.6l-0.1-0.4
				c-0.6-3.8-4-6.3-8.4-6.3c-6.1,0-10.3,4.6-10.3,11.3c0,6.6,4.2,11.3,10.3,11.3c4.6,0,8.5-3.8,8.8-8.5v-0.5h2.6l-0.1,0.5
				C274.1,66.5,269.3,71,263.3,71L263.3,71z M263.3,44.8c-7.1,0-11.9,5.1-11.9,12.6S256.2,70,263.3,70c5.3,0,9.6-3.9,10.4-9.3h-0.6
				c-0.6,5-4.9,9-9.8,9c-6.7,0-11.3-5-11.3-12.3c0-7.2,4.7-12.3,11.3-12.3c4.7,0,8.4,2.7,9.3,6.7h0.6
				C272.8,50.1,270.8,44.8,263.3,44.8L263.3,44.8z"/>
		</g>
		<g>
			<path class="st1" d="M285.5,51.5c5.5,0,8.6,4.3,8.6,9.4s-3.1,9.4-8.6,9.4s-8.6-4.3-8.6-9.4S280,51.5,285.5,51.5z M285.5,69.2
				c4.7,0,7.2-4,7.2-8.3s-2.5-8.3-7.2-8.3s-7.2,4-7.2,8.3C278.2,65.2,280.8,69.2,285.5,69.2z"/>
			<path class="st1" d="M285.5,70.8c-5.4,0-9.1-4.1-9.1-9.9s3.8-9.9,9.1-9.9c5.4,0,9.1,4.1,9.1,9.9
				C294.6,66.7,290.9,70.8,285.5,70.8L285.5,70.8z M285.5,52c-5.6,0-8.1,4.5-8.1,8.9s2.5,8.9,8.1,8.9s8.1-4.5,8.1-8.9
				S291.1,52,285.5,52L285.5,52z M285.5,69.7c-5.3,0-7.7-4.5-7.7-8.8c0-4.2,2.4-8.8,7.7-8.8c5.3,0,7.7,4.5,7.7,8.8
				C293.2,65.1,290.8,69.7,285.5,69.7L285.5,69.7z M285.5,53.2c-4.6,0-6.7,4-6.7,7.8c0,3.7,2.1,7.8,6.7,7.8s6.7-4,6.7-7.8
				C292.2,57.2,290.1,53.2,285.5,53.2L285.5,53.2z"/>
		</g>
		<g>
			<path class="st1" d="M311.6,66.6c0,1,0,2.2,1.2,2.2c0.3,0,0.6,0,1-0.1v1.1c-0.4,0.1-0.8,0.1-1.1,0.1c-2.2,0-2.5-1.2-2.5-2.6v-0.9
				h-0.1c-0.9,2.1-3.4,4-7,4s-6.3-1.3-6.3-5.1c0-4.2,3.8-5.1,6.9-5.3c6.2-0.4,6.5-0.8,6.5-3.7c0-0.8-1-3.5-5.2-3.5
				c-3.4,0-5.6,1.7-5.8,4.8h-1.4c0.2-4,2.7-5.9,7.2-5.9c3.3,0,6.6,1,6.6,4.7L311.6,66.6L311.6,66.6z M310.2,59.7
				c-1.1,1.2-4.1,1-6.8,1.4c-3.3,0.4-5.2,1.5-5.2,4.2c0,2.2,1.6,3.9,4.9,3.9c6.3,0,7-5.2,7-6.1v-3.4H310.2z"/>
			<path class="st1" d="M303.2,70.8c-4.4,0-6.8-1.9-6.8-5.6c0-5.2,5.6-5.7,7.4-5.8c6-0.4,6-0.7,6-3.2c0-0.6-0.8-3-4.7-3
				c-3.2,0-5.1,1.6-5.3,4.3V58h-2.4v-0.5c0.2-4.1,2.9-6.4,7.7-6.4c4.6,0,7.1,1.8,7.1,5.2v10.4c0,1.4,0.1,1.7,0.7,1.7
				c0.2,0,0.5,0,0.9-0.1l0.6-0.1v2.1l-0.5,0.1c-0.4,0.1-0.7,0.1-1.1,0.1c-2.3,0-2.9-1.2-3-2.4C308.4,69.7,305.9,70.8,303.2,70.8
				L303.2,70.8z M305,52.2c4.8,0,5.7,3.2,5.7,4c0,3.4-0.7,3.8-6.9,4.2c-4.5,0.4-6.5,1.8-6.5,4.8c0,3,2,4.6,5.8,4.6
				c2.3,0,3.9-0.7,5.1-1.7c-1.1,0.9-2.8,1.6-5,1.6c-3.3,0-5.4-1.7-5.4-4.4c0-3.6,3.2-4.4,5.6-4.7c0.7-0.1,1.4-0.1,2.1-0.2
				c1.9-0.2,3.7-0.3,4.4-1l0.9-0.9V63c0,0.7-0.2,1.7-0.7,2.8h0.6l0.1,0.5v0.9c0,1.4,0.3,2.1,2,2.1c0.2,0,0.4,0,0.6-0.1v-0.1
				c-0.2,0-0.4,0-0.5,0c-1.7,0-1.7-1.7-1.7-2.7V56.2c0-2.8-2-4.2-6.1-4.2s-6.3,1.7-6.6,4.9h0.4C299.2,53.9,301.5,52.2,305,52.2
				L305,52.2z M309.7,60.6c-1.1,0.5-2.6,0.6-4.2,0.7c-0.7,0.1-1.4,0.1-2.1,0.2c-3.3,0.4-4.7,1.4-4.7,3.7c0,2.1,1.7,3.4,4.4,3.4
				c6.5,0,6.5-5.6,6.5-5.6v-2.4H309.7z"/>
		</g>
		<g>
			<path class="st1" d="M330.6,57.5c-0.3-3.2-3-4.8-6.4-4.8c-4.7,0-7.2,4-7.2,8.1c0,4.9,2.4,8.4,7.2,8.4c3.5,0,6.1-2.3,6.6-5.6h1.4
				c-0.6,4.3-3.9,6.8-7.9,6.8c-6.1,0-8.6-4.6-8.6-9.6s3.1-9.2,8.6-9.2c4.1,0,7.4,1.9,7.8,6h-1.5V57.5z"/>
			<path class="st1" d="M324.2,70.8c-6.7,0-9.1-5.2-9.1-10.1c0-5.7,3.8-9.7,9.1-9.7c4.8,0,7.9,2.4,8.3,6.4l0.1,0.5h-2.4v-0.5
				c-0.3-3.2-3.2-4.4-5.9-4.4c-4.4,0-6.7,3.8-6.7,7.6c0,5,2.5,7.9,6.7,7.9c3.2,0,5.6-2.1,6.1-5.2l0.1-0.4h2.4l-0.1,0.6
				C332,68,328.7,70.8,324.2,70.8L324.2,70.8z M324.2,52c-5.6,0-8.1,4.4-8.1,8.7c0,2.1,0.6,9.1,8.1,9.1c3.8,0,6.6-2.2,7.3-5.8h-0.4
				c-0.7,3.4-3.4,5.6-7,5.6c-4.8,0-7.7-3.4-7.7-8.9c0-4.3,2.7-8.6,7.7-8.6c3.7,0,6.3,1.9,6.8,4.8h0.4C330.8,53.9,328.2,52,324.2,52
				L324.2,52z"/>
		</g>
		<g>
			<path class="st1" d="M337.2,44.9v10.8h0.1c1-2.7,3.8-4.3,6.7-4.3c6.6,0,6.7,5.1,6.7,7.3v11.1h-1.4V58.5c0-1.9-0.2-5.9-5.3-5.9
				c-4.2,0-6.8,3.1-6.8,7.5v9.7h-1.4v-25h1.4V44.9z"/>
			<path class="st1" d="M351.2,70.4h-2.4V58.5c0-2.3-0.5-5.4-4.8-5.4c-3.8,0-6.3,2.8-6.3,7v10.2h-2.4v-26h2.4v9.5
				c1.4-1.8,3.7-2.9,6.3-2.9c7.2,0,7.2,5.7,7.2,7.8L351.2,70.4L351.2,70.4z M349.8,69.4h0.4V58.8c0-3.4-0.7-6.8-6.2-6.8
				c-2.6,0-4.8,1.2-5.9,3.1c1.3-1.9,3.3-2.9,5.8-2.9c3.9,0,5.8,2.1,5.8,6.4v10.8H349.8z M336.3,69.4h0.4v-9.2c0-1.5,0.3-2.8,0.8-3.9
				h-0.7l-0.1-0.5V45.4h-0.4L336.3,69.4L336.3,69.4z"/>
		</g>
		<g>
			<path class="st1" d="M355.5,48.5v-3.6h1.4v3.6H355.5z M355.5,69.9v-18h1.4v18H355.5z"/>
			<path class="st1" d="M357.4,70.4H355v-19h2.4V70.4L357.4,70.4z M356,69.4h0.4v-17H356V69.4L356,69.4z M357.4,49H355v-4.6h2.4V49
				L357.4,49z M356,48h0.4v-2.6H356V48L356,48z"/>
		</g>
		<g>
			<path class="st1" d="M361.7,51.9h1.4v3.8h0.1c1-2.7,3.8-4.3,6.7-4.3c6.6,0,6.7,5.1,6.7,7.3v11.1h-1.4V58.5c0-1.9-0.2-5.9-5.3-5.9
				c-4.2,0-6.8,3.1-6.8,7.5v9.7h-1.4L361.7,51.9L361.7,51.9z"/>
			<path class="st1" d="M377.1,70.4h-2.4V58.5c0-2.3-0.5-5.4-4.8-5.4c-3.8,0-6.3,2.8-6.3,7v10.2h-2.4v-19h2.4v2.5
				c1.4-1.8,3.7-2.9,6.3-2.9c7.2,0,7.2,5.7,7.2,7.8L377.1,70.4L377.1,70.4z M375.7,69.4h0.4V58.8c0-3.4-0.7-6.8-6.2-6.8
				c-2.6,0-4.8,1.2-5.9,3.1c1.3-1.9,3.3-2.9,5.8-2.9c3.9,0,5.8,2.1,5.8,6.4v10.8H375.7z M362.2,69.4h0.4v-9.2c0-1.5,0.3-2.8,0.8-3.9
				h-0.7l-0.1-0.5v-3.3h-0.4L362.2,69.4L362.2,69.4z"/>
		</g>
		<g>
			<path class="st1" d="M396.6,51.9v17c0,1.4,0,8-8.1,7.8c-4,0-7.1-1.4-7.4-5.6h1.4c0.3,3.2,2.9,4.4,6,4.4c6.6,0,6.7-5.1,6.7-6.3
				v-4.1h-0.1c-1.3,2.7-3.6,4.1-6.8,4.1c-5.5,0-8.1-3.9-8.1-8.9c0-4.8,2.8-8.9,8.1-8.9c2.9,0,5.8,1.5,6.8,4.2h0.1v-3.7H396.6z
				 M381.6,60.4c0,4.2,2.3,7.7,6.7,7.7c4.6,0,6.8-3.7,6.8-7.7s-2.2-7.7-6.8-7.7C383.8,52.7,381.6,56.5,381.6,60.4z"/>
			<path class="st1" d="M388.9,77.3c-0.1,0-0.3,0-0.4,0c-4.9,0-7.6-2.1-7.8-6.1v-0.5h2.4v0.5c0.3,3.5,3.6,4,5.5,4
				c5.1,0,6.2-3.2,6.2-5.8v-2.5c-1.5,1.9-3.7,3-6.4,3c-5.3,0-8.6-3.6-8.6-9.4c0-4.7,2.7-9.4,8.6-9.4c2.7,0,5,1.1,6.4,2.9v-2.5h2.4
				V69C397.1,74.3,394.2,77.3,388.9,77.3L388.9,77.3z M381.6,71.7c0.4,3.1,2.7,4.6,6.8,4.6c0.2,0,0.3,0,0.4,0c4.7,0,7.2-2.5,7.2-7.3
				V52.4h-0.4v3.7h-0.8l-0.2-0.3c-0.9-2.3-3.4-3.8-6.3-3.8c-5.3,0-7.6,4.2-7.6,8.4c0,5.3,2.9,8.4,7.6,8.4c3,0,5.1-1.3,6.4-3.8
				l0.1-0.3h0.8l0.1,0.5v4.1c0,4.3-2.6,6.8-7.2,6.8c-3.7,0-6-1.6-6.4-4.4H381.6L381.6,71.7z M388.3,68.6c-4.3,0-7.2-3.3-7.2-8.2
				c0-3.9,2.3-8.2,7.2-8.2c5.1,0,7.3,4.1,7.3,8.2C395.7,64.5,393.4,68.6,388.3,68.6L388.3,68.6z M388.3,53.2c-4.3,0-6.2,3.7-6.2,7.2
				c0,3.3,1.6,7.2,6.2,7.2c4.4,0,6.3-3.6,6.3-7.2C394.7,57,393,53.2,388.3,53.2L388.3,53.2z"/>
		</g>
	</g>
</g>
</svg>
