<?xml version="1.0" encoding="utf-8"?>
<!-- Generator: Adobe Illustrator 20.1.0, SVG Export Plug-In . SVG Version: 6.00 Build 0)  -->
<svg version="1.1" id="Layer_1" xmlns="http://www.w3.org/2000/svg" xmlns:xlink="http://www.w3.org/1999/xlink" x="0px" y="0px"
	 viewBox="0 0 20 20" style="enable-background:new 0 0 20 20;" xml:space="preserve">
<style type="text/css">
	.st0{fill:#BFCC31;}
</style>
<g>
	<g>
		<path class="st0" d="M10.1,16.3C9,16.3,8,16,7,15.5V19c1,0.4,2.2,0.6,3.3,0.6c3.7,0,6.8-2,8.5-5l-3.1-1.7
			C14.7,14.9,12.6,16.3,10.1,16.3z"/>
		<path class="st0" d="M3.9,10c0-3.5,2.8-6.3,6.3-6.3c2.4,0,4.5,1.4,5.6,3.4l3.1-1.7c-1.6-3-4.8-5-8.5-5c-5.3,0-9.6,4.3-9.6,9.6
			c0,2.8,1.2,5.3,3.1,7.1V10z"/>
	</g>
	<circle class="st0" cx="10.2" cy="10" r="3"/>
</g>
</svg>
