<?xml version="1.0" encoding="utf-8"?>
<!-- Generator: Adobe Illustrator 20.1.0, SVG Export Plug-In . SVG Version: 6.00 Build 0)  -->
<svg version="1.1" id="Layer_1" xmlns="http://www.w3.org/2000/svg" xmlns:xlink="http://www.w3.org/1999/xlink" x="0px" y="0px"
	 viewBox="0 0 20 20" style="enable-background:new 0 0 20 20;" xml:space="preserve">
<style type="text/css">
	.st0{fill:#BFCC31;}
</style>
<g>
	<g>
		<path class="st0" d="M9.8,8.7c-0.6,0-1.2-0.2-1.7-0.4v1.9c0.6,0.2,1.2,0.3,1.8,0.3c2,0,3.7-1.1,4.5-2.7l-1.7-0.9
			C12.3,7.9,11.1,8.7,9.8,8.7z"/>
		<path class="st0" d="M6.5,5.3c0-1.9,1.5-3.4,3.4-3.4c1.3,0,2.4,0.7,3,1.8l1.7-0.9c-0.9-1.6-2.6-2.7-4.5-2.7
			c-2.9,0-5.2,2.3-5.2,5.2c0,1.5,0.6,2.9,1.7,3.8V5.3z"/>
	</g>
	<circle class="st0" cx="9.8" cy="5.3" r="1.6"/>
</g>
</svg>
