<?xml version="1.0" encoding="utf-8"?>
<!-- Generator: Adobe Illustrator 20.1.0, SVG Export Plug-In . SVG Version: 6.00 Build 0)  -->
<svg version="1.1" id="Capa_1" xmlns="http://www.w3.org/2000/svg" xmlns:xlink="http://www.w3.org/1999/xlink" x="0px" y="0px"
	 viewBox="0 0 512 512" style="enable-background:new 0 0 512 512;" xml:space="preserve">
<style type="text/css">
	.st0{fill:#3D3D3D;}
</style>
<g>
	<path class="st0" d="M438.8,244.9c0-8.5-6.9-15.3-15.3-15.3c-8.5,0-15.3,6.9-15.3,15.3c0,83.9-68.2,152.1-152.1,152.1
		s-152.1-68.2-152.1-152.1c0-8.5-6.9-15.3-15.3-15.3s-15.3,6.9-15.3,15.3c0,95.6,73.8,174.3,167.4,182.1v54.3h-68.4
		c-8.5,0-15.3,6.9-15.3,15.3c0,8.5,6.9,15.3,15.3,15.3h167.4c8.5,0,15.3-6.9,15.3-15.3c0-8.5-6.9-15.3-15.3-15.3h-68.4V427
		C365,419.2,438.8,340.5,438.8,244.9z"/>
	<path class="st0" d="M256,343.9c54.6,0,99.1-44.4,99.1-99.1V99.1C355.1,44.4,310.6,0,256,0c-54.6,0-99.1,44.4-99.1,99.1v145.8
		C156.9,299.5,201.4,343.9,256,343.9z M187.6,99.1c0-37.7,30.7-68.4,68.4-68.4c37.7,0,68.4,30.7,68.4,68.4v145.8
		c0,37.7-30.7,68.4-68.4,68.4c-37.7,0-68.4-30.7-68.4-68.4L187.6,99.1L187.6,99.1z"/>
</g>
</svg>
