<?xml version="1.0" encoding="utf-8"?>
<!-- Generator: Adobe Illustrator 20.1.0, SVG Export Plug-In . SVG Version: 6.00 Build 0)  -->
<svg version="1.1" id="Capa_1" xmlns="http://www.w3.org/2000/svg" xmlns:xlink="http://www.w3.org/1999/xlink" x="0px" y="0px"
	 viewBox="0 0 512 512" style="enable-background:new 0 0 512 512;" xml:space="preserve">
<style type="text/css">
	.st0{fill:#3D3D3D;}
</style>
<g>
	<g>
		<g>
			<path class="st0" d="M256,0C114.6,0,0,114.6,0,256c0,141.4,114.6,256,256,256c141.4,0,256-114.6,256-256C512,114.6,397.4,0,256,0
				z M378.8,310.6c-6.7,6.7-17.5,6.7-24.1,0L256,211.9l-98.7,98.7c-6.7,6.7-17.5,6.7-24.1,0c-6.7-6.6-6.7-17.5,0-24.1l110.7-110.7
				c3.3-3.3,7.7-5,12.1-5c4.4,0,8.8,1.6,12.1,5l110.7,110.7C385.5,293.1,385.5,303.9,378.8,310.6z"/>
		</g>
	</g>
</g>
</svg>
