<?xml version="1.0" encoding="utf-8"?>
<!-- Generator: Adobe Illustrator 20.1.0, SVG Export Plug-In . SVG Version: 6.00 Build 0)  -->
<svg version="1.1" id="Capa_1" xmlns="http://www.w3.org/2000/svg" xmlns:xlink="http://www.w3.org/1999/xlink" x="0px" y="0px"
	 viewBox="0 0 512 512" style="enable-background:new 0 0 512 512;" xml:space="preserve">
<style type="text/css">
	.st0{fill:#3D3D3D;}
</style>
<g>
	<g>
		<path class="st0" d="M465.4,365.1l-234.7-192c-3.2-2.6-7.6-3.2-11.3-1.4c-3.7,1.7-6.1,5.5-6.1,9.6v320c0,4.7,3.1,8.9,7.6,10.2
			c1,0.3,2.1,0.4,3.1,0.4c3.5,0,6.9-1.7,8.9-4.8L315.1,384h143.6c4.5,0,8.5-2.8,10-7.1C470.2,372.7,468.9,367.9,465.4,365.1z"/>
	</g>
</g>
<g>
	<g>
		<path class="st0" d="M289.1,12.1C195.7-23.8,90.6,22.9,54.7,116.2c-35.9,93.3,10.8,198.4,104.2,234.4c1.3,0.5,2.6,0.7,3.8,0.7
			c4.3,0,8.3-2.6,10-6.8c2.1-5.5-0.6-11.7-6.1-13.8C84.2,299,43,206.2,74.7,123.9S199.1,0.3,281.4,32
			c82.3,31.7,123.6,124.4,91.9,206.8c-2.1,5.5,0.6,11.7,6.1,13.8c5.5,2.1,11.6-0.6,13.8-6.1C429.1,153.1,382.4,48,289.1,12.1z"/>
	</g>
</g>
<g>
	<g>
		<path class="st0" d="M331.2,133.7c-12.7-28.7-35.8-50.6-65.1-61.9c-29.3-11.3-61.1-10.5-89.8,2.3c-28.7,12.7-50.6,35.8-61.9,65.1
			s-10.4,61.1,2.3,89.8s35.8,50.6,65.1,61.9c1.3,0.5,2.6,0.7,3.8,0.7c4.3,0,8.3-2.6,9.9-6.8c2.1-5.5-0.6-11.7-6.1-13.8
			c-23.9-9.2-42.9-27.2-53.3-50.6c-10.4-23.4-11.1-49.5-1.9-73.5S161.6,104,185,93.6c23.4-10.4,49.5-11.1,73.5-1.9
			c23.9,9.2,42.9,27.2,53.3,50.6c10.4,23.4,11.1,49.5,1.9,73.5c-2.1,5.5,0.6,11.7,6.1,13.8c5.5,2.1,11.6-0.6,13.8-6.1
			C344.8,194.2,344,162.3,331.2,133.7z"/>
	</g>
</g>
</svg>
